<svg xmlns="http://www.w3.org/2000/svg" width="290.495" height="92.912" viewBox="0 0 290.495 92.912">
  <g id="Group_25" data-name="Group 25" transform="translate(-354.607 -308.026)">
    <path id="Path_13" data-name="Path 13" d="M401.556,339.377l-32.845,15.1,32.845,14.981v15.477l-46.949-22.41v-16.1l46.949-22.407Z" fill="#5ebaff"/>
    <path id="Path_14" data-name="Path 14" d="M436.872,308.026h13.711l-32.55,92.912H404.324Z" fill="#5ebaff"/>
    <path id="Path_15" data-name="Path 15" d="M645.1,346.433v16.1l-46.949,22.41V369.462L631,354.481l-32.844-15.1V324.026Z" fill="#5ebaff"/>
    <g id="Group_24" data-name="Group 24">
      <path id="Path_16" data-name="Path 16" d="M555.776,327.216H457.291l-5.1,14.4h93.238A32.494,32.494,0,0,1,555.776,327.216Z" fill="#5ebaff" stroke="#fff" stroke-linecap="round" stroke-linejoin="round" stroke-width="0.75"/>
      <path id="Path_17" data-name="Path 17" d="M443.068,367.347l-5.1,14.4H555.776a32.754,32.754,0,0,1-10.351-14.4Z" fill="#5ebaff" stroke="#fff" stroke-linecap="round" stroke-linejoin="round" stroke-width="0.75"/>
      <path id="Path_18" data-name="Path 18" d="M544.87,343.275H451.6l-7.942,22.412H544.87A37.973,37.973,0,0,1,544.87,343.275Z" fill="#a8d0ed" stroke="#fff" stroke-linecap="round" stroke-linejoin="round" stroke-width="0.75"/>
      <path id="Path_19" data-name="Path 19" d="M559.041,327.216c-3.729,0-16.947,14.69-13.669,33.542,2.6,14.987,13.175,20.99,13.669,20.99l20.543-16.018a37.885,37.885,0,0,1,0-22.5Z" fill="#f5f5f5" stroke="#fff" stroke-linecap="round" stroke-linejoin="round" stroke-width="0.75"/>
      <path id="Path_20" data-name="Path 20" d="M581.01,344.347a35.364,35.364,0,0,0,0,20.27l13-10.135Z" fill="#24242e" stroke="#fff" stroke-linecap="round" stroke-linejoin="round" stroke-width="0.75"/>
    </g>
  </g>
</svg>
