<svg xmlns="http://www.w3.org/2000/svg" width="174.966" height="186.317" viewBox="0 0 174.966 186.317">
  <g id="Group_3" data-name="Group 3" transform="translate(-287.517 -63.257)">
    <g id="Group_1" data-name="Group 1">
      <text id="FASTCODE" transform="translate(375 230.537)" fill="#5ebaff" font-size="24" font-family="Montserrat-Bold, Montserrat" font-weight="700"><tspan x="-68.052" y="0">FAST</tspan><tspan y="0" fill="#24242e">CODE</tspan></text>
      <text id="TAGLINE_HERE" data-name="TAGLINE HERE" transform="translate(374.381 246.574)" fill="#c0b9ba" font-size="12" font-family="Montserrat-Regular, Montserrat" letter-spacing="0.1em"><tspan x="-51.768" y="0">TAGLINE HERE</tspan></text>
    </g>
    <g id="Group_2" data-name="Group 2">
      <path id="Path_1" data-name="Path 1" d="M457.994,121.125c-3.7,0-5.947-1.978-5.947-6.739V80.827c0-11.746-6.207-17.57-17.967-17.57h-5.02v.049c-.272-.012-.544-.049-.828-.049H321.768c-.284,0-.556.037-.841.049v-.049h-4.884c-11.883,0-18.09,5.824-18.09,17.57v33.559c0,4.761-2.114,6.739-5.948,6.739h-4.488v7.926h4.488c3.834,0,5.948,1.979,5.948,6.739v33.547a21.019,21.019,0,0,0,2.028,9.743c2.72,5.231,8.124,7.828,16.062,7.828h4.884v-.038c.285.013.557.038.841.038H428.232c.284,0,.556-.025.828-.038v.038h5.02c11.76,0,17.967-5.812,17.967-17.571V135.79c0-4.76,2.25-6.739,5.947-6.739h4.489v-7.926Z" fill="#5ebaff"/>
      <path id="Path_2" data-name="Path 2" d="M427.094,74.311s-28.563-7.679-60.119,23.877c-.111.124-1.6,1.781-3.747,4.451-8.977-1.471-21.453,2.1-34.127,15.828,8.717,1.471,15.122,3.759,19.141,7.172-4.476,9.236-6.888,18.906-2.745,25.707-3.821,5.032-9.843,9.867-29.145,14.158-12.291,2.732-15.9,8.433-16.371,13.576,2.72,5.231,8.124,7.828,16.062,7.828h4.884v-.038c.285.013.557.038.841.038h49.56c-16.3-3.475-37.838-11.463-23.544-28.4.767-.915,1.5-1.793,2.177-2.659,6.813,4.242,16.532,1.818,25.806-2.683,3.425,4.019,5.712,10.436,7.184,19.154,13.713-12.675,17.286-25.151,15.815-34.14,2.683-2.139,4.34-3.623,4.463-3.747C434.785,102.887,427.094,74.311,427.094,74.311Zm-43.958,43.97a13.928,13.928,0,1,1,19.7,0A13.926,13.926,0,0,1,383.136,118.281Z" fill="#fff"/>
    </g>
  </g>
</svg>
